C:/Program Files/Krita (x64)/bin/ffmpeg.exe -hide_banner -y -y -r 24 -start_number 0 -start_number_range 1 -i C:/Users/PGCC Loaner/Documents/Personal Website/images/gifs/frame%04d.png -i C:/Users/PGCC Loaner/Documents/Personal Website/images/gifs/KritaTempPalettegen_%06d.png -lavfi [0:v][1:v]paletteuse=dither=sierra2_4a:diff_mode=none -f gif -loop 0 -gifflags +transdiff C:/Users/PGCC Loaner/Documents/Personal Website/images/gifs/abstract.gif
=====================================================
Input #0, image2, from 'C:/Users/PGCC Loaner/Documents/Personal Website/images/gifs/frame%04d.png':
  Duration: 00:00:00.84, start: 0.000000, bitrate: N/A
  Stream #0:0: Video: png, rgba(pc), 1920x1080 [SAR 9448:9448 DAR 16:9], 25 fps, 25 tbr, 25 tbn, 25 tbc
Input #1, image2, from 'C:/Users/PGCC Loaner/Documents/Personal Website/images/gifs/KritaTempPalettegen_%06d.png':
  Duration: 00:00:00.04, start: 0.000000, bitrate: N/A
  Stream #1:0: Video: png, rgba(pc), 16x16 [SAR 1:1 DAR 1:1], 25 fps, 25 tbr, 25 tbn, 25 tbc
Stream mapping:
  Stream #0:0 (png) -> paletteuse:default
  Stream #1:0 (png) -> paletteuse:palette
  paletteuse -> Stream #0:0 (gif)
Press [q] to stop, [?] for help
[image2 @ 00000270d2fec080] Thread message queue blocking; consider raising the thread_queue_size option (current value: 8)
Output #0, gif, to 'C:/Users/PGCC Loaner/Documents/Personal Website/images/gifs/abstract.gif':
  Metadata:
    encoder         : Lavf58.76.100
  Stream #0:0: Video: gif, pal8(pc, gbr/unknown/unknown, progressive), 1920x1080 [SAR 1:1 DAR 16:9], q=2-31, 200 kb/s, 24 fps, 100 tbn (default)
    Metadata:
      encoder         : Lavc58.134.100 gif
frame=    1 fps=0.0 q=-0.0 size=       0kB time=00:00:00.01 bitrate=   0.0kbits/s speed=0.0909x    frame=    1 fps=0.0 q=-0.0 size=       0kB time=00:00:00.01 bitrate=   0.0kbits/s speed=0.011x    frame=    6 fps=4.0 q=-0.0 size=     103kB time=00:00:00.22 bitrate=3825.5kbits/s speed=0.146x    frame=    8 fps=3.6 q=-0.0 size=     147kB time=00:00:00.30 bitrate=4003.0kbits/s speed=0.135x    frame=   10 fps=3.2 q=-0.0 size=     150kB time=00:00:00.39 bitrate=3140.6kbits/s speed=0.124x    frame=   12 fps=3.3 q=-0.0 size=     192kB time=00:00:00.47 bitrate=3350.1kbits/s speed=0.127x    frame=   15 fps=3.4 q=-0.0 size=     256kB time=00:00:00.59 bitrate=3554.5kbits/s speed=0.132x    frame=   18 fps=3.6 q=-0.0 size=     256kB time=00:00:00.72 bitrate=2912.7kbits/s speed=0.144x    frame=   21 fps=3.9 q=-0.0 Lsize=     291kB time=00:00:00.84 bitrate=2840.3kbits/s speed=0.154x    
video:291kB audio:0kB subtitle:0kB other streams:0kB global headers:0kB muxing overhead: 0.006707%
